<svg id="Capa_1" data-name="Capa 1" xmlns="http://www.w3.org/2000/svg" viewBox="0 0 353.66699 191.48326"><defs><style>.cls-1{fill:#e6007e;}.cls-2{fill:#683c11;}</style></defs><path class="cls-1" d="M181.14747,319.15057a2.62258,2.62258,0,0,1-.52735,1.50781,2.43027,2.43027,0,0,1-1.50732.97949l-15.22217,3.4668a61.5325,61.5325,0,0,1-3.915,9.72168,48.8666,48.8666,0,0,1-5.19531,8.21387,54.53426,54.53426,0,0,1-8.80811,8.5166,67.66806,67.66806,0,0,1-10.46582,6.66894,62.61881,62.61881,0,0,1-11.21826,4.48438,46.90226,46.90226,0,0,1-11.06738,1.88379,31.68239,31.68239,0,0,1-8.09326-.86621,14.27108,14.27108,0,0,1-5.082-2.33692,8.011,8.011,0,0,1-2.63526-3.39062,10.95774,10.95774,0,0,1-.75244-4.03223,12.23779,12.23779,0,0,1,3.69238-8.36523,40.31339,40.31339,0,0,1,10.55079-7.68653,113.58158,113.58158,0,0,1,16.69238-7.084q9.835-3.39111,22.19433-6.63184a63.868,63.868,0,0,0,2.148-9.72168,68.39819,68.39819,0,0,0,.71582-9.57128,36.07344,36.07344,0,0,0-1.58252-11.22852,24.10552,24.10552,0,0,0-4.2583-8.02588,17.12124,17.12124,0,0,0-6.25488-4.78564,18.52477,18.52477,0,0,0-7.57373-1.58252,20.00413,20.00413,0,0,0-8.40283,1.771,26.40594,26.40594,0,0,0-7.04639,4.71,37.93349,37.93349,0,0,0-5.65234,6.63184,48.71138,48.71138,0,0,0-4.18262,7.53613,43.43437,43.43437,0,0,0-2.562,7.49805,28.3598,28.3598,0,0,0-.8667,6.44336,6.36723,6.36723,0,0,0,.603,3.05273,9.76011,9.76011,0,0,0,1.13037,1.69532,4.12227,4.12227,0,0,1,.56494.67871,1.56506,1.56506,0,0,1,.18848.8291,2.91792,2.91792,0,0,1-1.54493,2.33594,6.319,6.319,0,0,1-3.65478,1.05468,7.278,7.278,0,0,1-3.5044-.8291,7.92081,7.92081,0,0,1-2.63769-2.29785,11.16688,11.16688,0,0,1-1.6958-3.4668,14.67822,14.67822,0,0,1-.60254-4.25781,25.92035,25.92035,0,0,1,1.43066-8.10156,37.592,37.592,0,0,1,4.17774-8.59131,47.97088,47.97088,0,0,1,6.73779-8.17676,45.795,45.795,0,0,1,9.10938-6.89551,49.54926,49.54926,0,0,1,11.29248-4.74755,47.87456,47.87456,0,0,1,13.25048-1.771,36.107,36.107,0,0,1,11.33057,1.69531,22.14279,22.14279,0,0,1,8.80908,5.313,24.46468,24.46468,0,0,1,5.6836,9.26953,40.22518,40.22518,0,0,1,2.03271,13.56543q0,3.61669-.41211,7.875a61.03878,61.03878,0,0,1-1.3872,8.32715l13.48974-3.165a.98109.98109,0,0,0,.22608-.03809,1.266,1.266,0,0,1,.30127-.0371,1.86424,1.86424,0,0,1,1.43212.56542A1.97107,1.97107,0,0,1,181.14747,319.15057Zm-79.13916,37.37988a5.51706,5.51706,0,0,0,2.67627,2.71289,9.285,9.285,0,0,0,3.80713.75391,18.42417,18.42417,0,0,0,4.6372-.64063,39.68927,39.68927,0,0,0,4.78662-1.583q2.33643-.94337,4.41114-1.99707,2.07348-1.05617,3.50537-1.959a54.22,54.22,0,0,0,13.4956-10.47558,45.53416,45.53416,0,0,0,8.896-14.24317q-23.447,6.02784-35.24561,12.208-11.79858,6.17871-11.79882,12.05859A7.07326,7.07326,0,0,0,102.00831,356.53045Zm8.51562-29.91894a5.02174,5.02174,0,0,1-.30127-1.7334,15.54773,15.54773,0,0,1,.75342-4.333,55.75575,55.75575,0,0,1,1.95947-5.42578q1.20485-2.90039,2.71289-6.0293,1.50734-3.126,2.93946-6.0664,2.18481-4.522,3.80566-8.06348a14.59559,14.59559,0,0,0,1.62012-5.04932c0-.251.01172-.33935.0376-.26367.0249.0752.0122.06348-.0376-.0376a.80755.80755,0,0,1-.37647-.7539q0-.75221,1.58252-1.46973a8.50747,8.50747,0,0,1,3.542-.71582,7.23623,7.23623,0,0,1,4.10693,1.13037q1.69555,1.13086,1.6958,4.3711a15.96489,15.96489,0,0,1-.75342,4.59716,47.231,47.231,0,0,1-1.92187,5.16211q-1.16969,2.67627-2.6001,5.3125-1.43262,2.63966-2.86377,5.125-1.28247,2.187-2.44922,4.3711-1.16895,2.187-2.10986,4.18261a30.84853,30.84853,0,0,0-1.50733,3.76758,10.46586,10.46586,0,0,0-.56543,3.12793v.45215a2.28043,2.28043,0,0,1-1.20556,1.80859,4.92485,4.92485,0,0,1-2.86377.82911,5.63809,5.63809,0,0,1-3.01465-.94239,5.77135,5.77135,0,0,1-2.26074-3.35351Z" transform="translate(-93.11573 -179.02616)"/><path class="cls-2" d="M249.79151,319.15057c0,.05078.01172.07519.03906.07519.02344,0,.03711.05079.03711.15137a1.994,1.994,0,0,1-.60351,1.39356,3.13023,3.13023,0,0,1-1.28125.86718q-3.99317.90381-8.02539,2.07227-4.032,1.16895-7.95069,2.67578a19.31474,19.31474,0,0,1,1.6958,4.89844,26.48113,26.48113,0,0,1,.48975,5.124,19.12868,19.12868,0,0,1-3.76807,11.418,35.10592,35.10592,0,0,1-10.3999,9.5332,44.39709,44.39709,0,0,1-5.57666,2.75,58.09281,58.09281,0,0,1-6.17969,2.14844,58.8643,58.8643,0,0,1-6.25537,1.43164,34.69191,34.69191,0,0,1-5.80273.52735,19.03328,19.03328,0,0,1-6.40576-.9043,11.56464,11.56464,0,0,1-3.91846-2.22266,6.97711,6.97711,0,0,1-1.95947-2.86426,8.80611,8.80611,0,0,1-.52784-2.82617,10.79546,10.79546,0,0,1,2.44922-6.44336,40.06411,40.06411,0,0,1,5.99121-6.33007,64.71887,64.71887,0,0,1,7.57422-5.61426q4.03051-2.56349,7.19678-4.3711,2.335-1.28319,5.23779-2.67578,2.9004-1.39306,5.76514-2.6748-.30175-.52734-.64063-1.20606a10.84362,10.84362,0,0,0-.64062-1.13086,26.67371,26.67371,0,0,1-3.46631.22657,13.77205,13.77205,0,0,1-6.33057-1.28125,4.709,4.709,0,0,1-2.48681-4.59668,7.24472,7.24472,0,0,1,.45215-2.29883,7.05378,7.05378,0,0,1,1.58252-2.52442,9.018,9.018,0,0,1,3.05224-2.03515,12.57511,12.57511,0,0,1,4.936-.8291,13.63312,13.63312,0,0,1,7.00879,2.11035q1.65673-1.43115,3.27832-3.12793a21.24469,21.24469,0,0,0,2.86377-3.76758,20.44524,20.44524,0,0,0,1.99707-4.52148,18.28939,18.28939,0,0,0,.75341-5.38868,16.34162,16.34162,0,0,0-5.80273-12.92431,17.9041,17.9041,0,0,0-5.76514-3.24072,19.65539,19.65539,0,0,0-6.36816-1.09229,21.27682,21.27682,0,0,0-11.04053,2.78809,26.77937,26.77937,0,0,0-7.83789,6.9331,31.086,31.086,0,0,0-4.71,8.85547,27.29029,27.29029,0,0,0-1.58252,8.62891,14.7041,14.7041,0,0,0,.603,4.4082,6.37249,6.37249,0,0,0,1.80859,2.97656,1.88117,1.88117,0,0,1,.603,1.35645,1.91346,1.91346,0,0,1-.49023,1.20605,5.72173,5.72173,0,0,1-1.28077,1.13086,7.53628,7.53628,0,0,1-1.80908.86621,6.49969,6.49969,0,0,1-2.07226.33887,5.61037,5.61037,0,0,1-3.542-1.168,9.00373,9.00373,0,0,1-2.44922-2.93848,17.09651,17.09651,0,0,1-1.92187-7.57421,19.43724,19.43724,0,0,1,.9043-5.72754,33.79339,33.79339,0,0,1,2.41162-5.80274,38.5774,38.5774,0,0,1,8.064-10.3999,39.842,39.842,0,0,1,6.51856-4.63477,48.65741,48.65741,0,0,1,7.15967-3.35351,43.60825,43.60825,0,0,1,7.38525-2.03467,41.01659,41.01659,0,0,1,7.34766-.67822,39.17744,39.17744,0,0,1,11.2666,1.54492,27.77627,27.77627,0,0,1,8.93066,4.40869,20.58655,20.58655,0,0,1,5.87744,6.89551,18.97008,18.97008,0,0,1,2.11133,8.92969,20.75355,20.75355,0,0,1-1.168,6.7832,28.76779,28.76779,0,0,1-3.24121,6.51855,33.66917,33.66917,0,0,1-4.93652,5.84082,39.11548,39.11548,0,0,1-6.25489,4.82325l1.20606,1.80859q4.67139-1.58349,8.93018-2.82617,4.2561-1.24365,8.55419-2.29883a.58277.58277,0,0,0,.1875-.03809.6464.6464,0,0,1,.18946-.0371,1.84073,1.84073,0,0,1,1.35547.52734,2.49405,2.49405,0,0,1,.67773,1.35644Zm-61.56982,34.5918a2.52928,2.52928,0,0,0-.15088.791v.71582a2.91364,2.91364,0,0,0,1.46972,2.86328,7.96276,7.96276,0,0,0,3.65528.75391,21.85015,21.85015,0,0,0,5.38818-.67773,29.59065,29.59065,0,0,0,5.12451-1.8086,36.655,36.655,0,0,0,4.59717-2.52539,43.05549,43.05549,0,0,0,3.80566-2.75h-.07519a32.67171,32.67171,0,0,0,2.75049-2.60058,21.572,21.572,0,0,0,2.5249-3.24024,17.91859,17.91859,0,0,0,1.84619-3.88086,13.99632,13.99632,0,0,0,.71582-4.52246,21.46675,21.46675,0,0,0-.18847-2.78809,17.90956,17.90956,0,0,0-.565-2.71289q-6.40648,2.86377-11.79394,5.87793a89.85441,89.85441,0,0,0-9.38281,5.95411,45.11353,45.11353,0,0,0-6.51856,5.68945,13.85955,13.85955,0,0,0-3.20312,4.93652Zm1.80859-27.13086a5.02174,5.02174,0,0,1-.30127-1.7334,15.54773,15.54773,0,0,1,.75342-4.333,55.75575,55.75575,0,0,1,1.95947-5.42578q1.20483-2.90039,2.71289-6.0293,1.50732-3.126,2.93946-6.0664,2.18481-4.522,3.80566-8.06348a14.59559,14.59559,0,0,0,1.62012-5.04932c0-.251.01172-.33935.03759-.26367.02491.0752.01221.06348-.03759-.0376a.80753.80753,0,0,1-.37647-.7539q0-.75221,1.58252-1.46973a8.50743,8.50743,0,0,1,3.542-.71582,7.23624,7.23624,0,0,1,4.10694,1.13037q1.69555,1.13086,1.6958,4.3711a15.96523,15.96523,0,0,1-.75342,4.59716,47.23114,47.23114,0,0,1-1.92188,5.16211q-1.16967,2.67627-2.60009,5.3125-1.43262,2.63966-2.86377,5.125-1.28247,2.187-2.44922,4.3711-1.169,2.187-2.10986,4.18261a30.84853,30.84853,0,0,0-1.50733,3.76758,10.46586,10.46586,0,0,0-.56543,3.12793v.45215a2.28043,2.28043,0,0,1-1.20556,1.80859,4.92485,4.92485,0,0,1-2.86377.82911,5.63809,5.63809,0,0,1-3.01465-.94239,5.7714,5.7714,0,0,1-2.26075-3.35351Z" transform="translate(-93.11573 -179.02616)"/><path class="cls-2" d="M272.02393,299.132a3.32108,3.32108,0,0,1-.94238,2.58008,3.09937,3.09937,0,0,1-2.14746.85938,3.37,3.37,0,0,1-2.14746-.74219,2.41531,2.41531,0,0,1-.94238-2.00488,2.54328,2.54328,0,0,1,.90429-2.0791,1.33614,1.33614,0,0,0-.37695-.14746,3.93889,3.93889,0,0,0-2.48731,1.20507,19.50258,19.50258,0,0,0-2.78808,3.20313,41.37463,41.37463,0,0,0-2.78809,4.52148,48.94336,48.94336,0,0,0-2.41211,5.2002,42.09572,42.09572,0,0,0-1.69531,5.2373,19.14288,19.14288,0,0,0-.64062,4.59766,6.9956,6.9956,0,0,0,.60351,3.01465,1.97623,1.97623,0,0,0,1.88379,1.28027,3.28185,3.28185,0,0,0,2.07227-1.0918,21.09,21.09,0,0,0,2.41113-2.751q1.24365-1.65673,2.44922-3.61719,1.20557-1.96,2.11035-3.69336a4.18538,4.18538,0,0,1-1.88379-1.92187,6.41626,6.41626,0,0,1-.52734-2.67481,6.63746,6.63746,0,0,1,.30078-1.96,5.60593,5.60593,0,0,1,.90429-1.77051,4.96955,4.96955,0,0,1,1.43262-1.28125,3.63176,3.63176,0,0,1,1.88379-.49023c.30176,0,.69043.01367,1.168.03808a3.52108,3.52108,0,0,1,1.39453.377,2.89289,2.89289,0,0,1,1.168,1.168,4.62845,4.62845,0,0,1,.49023,2.33593,10.462,10.462,0,0,1-.15136,1.62012q-.15089.94337-.377,1.84668a12.77612,12.77612,0,0,0,3.61817-.8291,9.245,9.245,0,0,0,2.29785-1.31836,5.84466,5.84466,0,0,0,1.28125-1.39453,7.94246,7.94246,0,0,0,.56543-1.05469,1.78813,1.78813,0,0,1,1.7334-1.13086,2.08478,2.08478,0,0,1,1.46972.60352,1.9058,1.9058,0,0,1,.64063,1.43164,2.16439,2.16439,0,0,1-.03809.41406c-.02636.126-.08789.36523-.18847.71582a7.943,7.943,0,0,1-1.959,2.5625,12.15346,12.15346,0,0,1-3.01465,1.92187,18.93259,18.93259,0,0,1-3.76855,1.24317,22.93784,22.93784,0,0,1-4.21973.52734,54.28693,54.28693,0,0,1-2.63769,4.89942,33.33745,33.33745,0,0,1-3.65528,4.97363,20.678,20.678,0,0,1-4.55957,3.88086,10.08574,10.08574,0,0,1-5.42578,1.54492,9.29263,9.29263,0,0,1-4.06933-.86621,8.49909,8.49909,0,0,1-3.01465-2.374,10.88867,10.88867,0,0,1-1.84668-3.50489,13.63764,13.63764,0,0,1-.64063-4.18261,28.22883,28.22883,0,0,1,1.62012-9.11817,32.24116,32.24116,0,0,1,4.52246-8.7041,25.71947,25.71947,0,0,1,6.89551-6.519,15.74558,15.74558,0,0,1,8.666-2.562,7.63884,7.63884,0,0,1,3.12793.56,6.49015,6.49015,0,0,1,2.03516,1.38379,5.17528,5.17528,0,0,1,1.168,1.90577,11.948,11.948,0,0,1,.52734,2.05664Z" transform="translate(-93.11573 -179.02616)"/><path class="cls-2" d="M297.79639,299.85858a2.5946,2.5946,0,0,1,.9043-2.11035h-.15137q-1.88379,0-4.71,3.61718a54.25009,54.25009,0,0,0-5.916,10.249A25.86745,25.86745,0,0,0,286.228,316.551a21.55634,21.55634,0,0,0-.64062,5.01172,7.3776,7.3776,0,0,0,.56543,3.27832,2.11892,2.11892,0,0,0,2.07226,1.09277,9.29746,9.29746,0,0,0,5.16211-1.96,31.14151,31.14151,0,0,0,5.42676-4.86035,50.44131,50.44131,0,0,0,4.71-6.14258,36.23393,36.23393,0,0,0,3.165-5.80273,1.81285,1.81285,0,0,1,1.88379-1.28125,2.15791,2.15791,0,0,1,1.46973.56543,1.6495,1.6495,0,0,1,.64062,1.24316l-.22656.9043a62.06281,62.06281,0,0,1-4.29492,7.31055,51.613,51.613,0,0,1-5.916,7.27246,33.4492,33.4492,0,0,1-7.00879,5.53906,14.58224,14.58224,0,0,1-7.42285,2.18555,10.89434,10.89434,0,0,1-4.94043-1.01758,9.424,9.424,0,0,1-3.2539-2.59961,10.35511,10.35511,0,0,1-1.7959-3.542,13.95782,13.95782,0,0,1-.56055-3.84375,19.961,19.961,0,0,1,.67383-5.01172,41.06744,41.06744,0,0,1,1.57031-4.86035q3.665-8.81837,8.73633-12.81153a16.79049,16.79049,0,0,1,10.49707-3.99414,12.24148,12.24148,0,0,1,2.14844.22608,7.03448,7.03448,0,0,1,2.374.90429,6.27764,6.27764,0,0,1,1.9209,1.80811,5.01325,5.01325,0,0,1,.792,2.93945,3.43091,3.43091,0,0,1-.94238,2.751,3.24991,3.24991,0,0,1-2.14746.791,3.34155,3.34155,0,0,1-2.14844-.7539A2.46531,2.46531,0,0,1,297.79639,299.85858Z" transform="translate(-93.11573 -179.02616)"/><path class="cls-2" d="M331.93311,299.10467a5.64776,5.64776,0,0,1-.03711.67871,5.39858,5.39858,0,0,1-.11328.60254,23.0084,23.0084,0,0,0,.8291-2.14746,5.33689,5.33689,0,0,0,.30176-1.54492,1.15926,1.15926,0,0,0-.15137-.45215,1.71755,1.71755,0,0,1-.22558-.26416,1.011,1.011,0,0,1-.0752-.48975q0-.82836,1.24317-1.46972a6.43517,6.43517,0,0,1,2.97656-.64014,7.43711,7.43711,0,0,1,2.03516.30127,5.98419,5.98419,0,0,1,1.959.97949,5.22976,5.22976,0,0,1,1.50781,1.88379,6.72121,6.72121,0,0,1,.60254,3.01465,12.81355,12.81355,0,0,1-.64062,3.73047,37.74417,37.74417,0,0,1-1.65821,4.333q-1.01659,2.26172-2.22265,4.48437-1.207,2.22363-2.33692,4.25781-1.582,2.86524-2.86328,5.35059a9.37571,9.37571,0,0,0-1.28125,3.61719q0,.45262.52735.45215a3.23769,3.23769,0,0,0,1.73339-.9795,25.19571,25.19571,0,0,0,2.52442-2.59961q1.39453-1.62011,2.86426-3.61718,1.46924-1.99659,2.78808-4.07032,1.31837-2.07129,2.374-3.99414a28.83408,28.83408,0,0,0,1.583-3.27832,1.89609,1.89609,0,0,1,1.88379-1.35644,2.36022,2.36022,0,0,1,1.46973.49023,1.57862,1.57862,0,0,1,.64062,1.31836,1.639,1.639,0,0,1-.07617.415,2.42285,2.42285,0,0,1-.15039.41406q-.7544,1.50879-1.99707,3.73047-1.24365,2.22363-2.86328,4.71-1.62159,2.48731-3.4668,4.97461a42.9899,42.9899,0,0,1-3.80566,4.4834,22.33913,22.33913,0,0,1-3.91895,3.24121,7.06723,7.06723,0,0,1-3.76855,1.24317,5.55333,5.55333,0,0,1-4.25781-1.7334,7.86876,7.86876,0,0,1-1.92188-4.74805,21.38688,21.38688,0,0,1-4.59669,4.67285,9.36626,9.36626,0,0,1-5.65233,1.8086,10.84335,10.84335,0,0,1-4.89844-1.01758,9.47322,9.47322,0,0,1-3.27832-2.59961,10.298,10.298,0,0,1-1.80859-3.542,13.82137,13.82137,0,0,1-.56543-3.84375,19.84078,19.84078,0,0,1,.67871-5.01172,40.87515,40.87515,0,0,1,1.582-4.86035q3.69141-8.81837,8.78027-12.81153a16.85145,16.85145,0,0,1,10.5127-3.99414,12.23157,12.23157,0,0,1,2.14746.22608,7.0267,7.0267,0,0,1,2.374.90429,6.27,6.27,0,0,1,1.92188,1.80811A5.02026,5.02026,0,0,1,331.93311,299.10467Zm-6.17969.75391a2.59752,2.59752,0,0,1,.9043-2.11035h-.15039q-1.88379,0-4.71,3.61718a54.25006,54.25006,0,0,0-5.916,10.249,23.03426,23.03426,0,0,0-1.65821,4.748,20.80553,20.80553,0,0,0-.60253,4.748,9.51774,9.51774,0,0,0,.56543,3.42871,1.93606,1.93606,0,0,0,1.84571,1.46973,3.55691,3.55691,0,0,0,2.4121-1.31934,22.76254,22.76254,0,0,0,2.6377-3.39062q1.35645-2.07276,2.71289-4.63477t2.6377-4.97461v.07617q.45262-.90527.90429-1.77148.45264-.86572.9043-1.69531v.07519l1.43164-3.165,1.80859-4.06933a2.26978,2.26978,0,0,1-1.09277,1.168,3.57044,3.57044,0,0,1-1.54492.33886,3.34083,3.34083,0,0,1-2.14746-.7539A2.4634,2.4634,0,0,1,325.75342,299.85858Z" transform="translate(-93.11573 -179.02616)"/><path class="cls-2" d="M371.3921,299.55682l2.32617-5.35059q1.5747-3.54126,3.001-6.85791,1.42529-3.31494,2.55175-6.02881,1.125-2.71288,1.7627-4.67236a10.61313,10.61313,0,0,0,.63867-2.78857v-.0752a.88056.88056,0,0,1-.30176-.75342q0-.82909,1.25293-1.46972a6.52475,6.52475,0,0,1,2.99805-.64063,8.25676,8.25676,0,0,1,1.97363.26367,5.88741,5.88741,0,0,1,1.97363.9043,5.12447,5.12447,0,0,1,1.51856,1.7334,5.60827,5.60827,0,0,1,.60742,2.751,17.63727,17.63727,0,0,1-1.01953,5.12451q-1.01954,3.16479-2.67871,6.9707-1.65968,3.8064-3.66113,7.98828-1.99951,4.18214-4.03711,8.17676-1.66115,3.31641-3.208,6.48145-1.54687,3.16405-2.75586,5.87793-1.207,2.71288-1.96094,4.78515a10.209,10.209,0,0,0-.75488,3.20313c0,.40234.07519.60254.22559.60254a3.18845,3.18845,0,0,0,1.81152-1.01661A24.50959,24.50959,0,0,0,376.146,322.09q1.35792-1.65674,2.83106-3.69238,1.47071-2.03468,2.793-4.10742,1.32129-2.07276,2.33984-3.91895a21.94447,21.94447,0,0,0,1.47168-3.12793,1.89871,1.89871,0,0,1,1.88672-1.35644,2.36376,2.36376,0,0,1,1.47168.49023,1.57439,1.57439,0,0,1,.6416,1.31836,1.62933,1.62933,0,0,1-.0752.415,2.60351,2.60351,0,0,1-.15039.41406q-.75732,1.50879-2.001,3.73047-1.24512,2.22363-2.86817,4.71-1.6245,2.48731-3.47168,4.97461a43.01975,43.01975,0,0,1-3.81152,4.4834,22.36963,22.36963,0,0,1-3.92578,3.24121,7.08233,7.08233,0,0,1-3.77344,1.24317,5.51088,5.51088,0,0,1-4.22656-1.69532,7.81479,7.81479,0,0,1-1.88672-4.71093,22.50014,22.50014,0,0,1-4.65039,4.63476,9.37683,9.37683,0,0,1-5.63086,1.77149,10.84335,10.84335,0,0,1-4.89844-1.01758,9.4734,9.4734,0,0,1-3.27832-2.59961,10.298,10.298,0,0,1-1.80859-3.542,13.82174,13.82174,0,0,1-.56543-3.84375,19.84342,19.84342,0,0,1,.67969-5.01172,41.04919,41.04919,0,0,1,1.585-4.86035q3.69873-8.81837,8.793-12.81153a16.89243,16.89243,0,0,1,10.52929-3.99414,12.28063,12.28063,0,0,1,2.15137.22608,7.04911,7.04911,0,0,1,2.377.90429,6.29343,6.29343,0,0,1,1.92578,1.80811,5.02034,5.02034,0,0,1,.792,2.93945Zm-6.18848.30176a2.5946,2.5946,0,0,1,.9043-2.11035h-.15137q-1.88966,0-4.72266,3.61718a54.18822,54.18822,0,0,0-5.93261,10.249,22.98118,22.98118,0,0,0-1.66211,4.748,20.75938,20.75938,0,0,0-.6045,4.748,9.49563,9.49563,0,0,0,.56641,3.42871,1.9397,1.9397,0,0,0,1.85059,1.46973,3.69168,3.69168,0,0,0,2.45605-1.31934,20.62884,20.62884,0,0,0,2.68164-3.42871q1.36085-2.10937,2.71875-4.63476,1.36085-2.52393,2.64551-4.93653.37793-.75146.75488-1.54492.37794-.791.75586-1.46875v.0752q.67823-1.58351,1.3584-3.31641.67969-1.73291,1.51172-3.542a2.91727,2.91727,0,0,1-2.03809.7539,3.34681,3.34681,0,0,1-2.15039-.7539A2.4661,2.4661,0,0,1,365.20362,299.85858Z" transform="translate(-93.11573 -179.02616)"/><path class="cls-2" d="M410.83643,299.132a3.32108,3.32108,0,0,1-.94238,2.58008,3.09937,3.09937,0,0,1-2.14746.85938,3.37,3.37,0,0,1-2.14746-.74219,2.41531,2.41531,0,0,1-.94238-2.00488,2.54328,2.54328,0,0,1,.90429-2.0791,1.33614,1.33614,0,0,0-.37695-.14746,3.93889,3.93889,0,0,0-2.48731,1.20507,19.50258,19.50258,0,0,0-2.78808,3.20313,41.37463,41.37463,0,0,0-2.78809,4.52148,48.94336,48.94336,0,0,0-2.41211,5.2002,42.09572,42.09572,0,0,0-1.69531,5.2373,19.14288,19.14288,0,0,0-.64062,4.59766,6.9956,6.9956,0,0,0,.60351,3.01465,1.97623,1.97623,0,0,0,1.88379,1.28027,3.28185,3.28185,0,0,0,2.07227-1.0918,21.09,21.09,0,0,0,2.41113-2.751q1.24365-1.65673,2.44922-3.61719,1.20557-1.96,2.11035-3.69336a4.18538,4.18538,0,0,1-1.88379-1.92187,6.41626,6.41626,0,0,1-.52734-2.67481,6.63746,6.63746,0,0,1,.30078-1.96,5.60593,5.60593,0,0,1,.90429-1.77051,4.96955,4.96955,0,0,1,1.43262-1.28125,3.63176,3.63176,0,0,1,1.88379-.49023c.30176,0,.69043.01367,1.168.03808a3.52108,3.52108,0,0,1,1.39453.377,2.89289,2.89289,0,0,1,1.168,1.168,4.62845,4.62845,0,0,1,.49023,2.33593,10.462,10.462,0,0,1-.15136,1.62012q-.15089.94337-.377,1.84668a12.77612,12.77612,0,0,0,3.61817-.8291,9.245,9.245,0,0,0,2.29785-1.31836,5.84466,5.84466,0,0,0,1.28125-1.39453,7.94246,7.94246,0,0,0,.56543-1.05469,1.78813,1.78813,0,0,1,1.7334-1.13086,2.08478,2.08478,0,0,1,1.46972.60352,1.9058,1.9058,0,0,1,.64063,1.43164,2.16439,2.16439,0,0,1-.03809.41406c-.02636.126-.08789.36523-.18847.71582a7.943,7.943,0,0,1-1.959,2.5625,12.15346,12.15346,0,0,1-3.01465,1.92187,18.93259,18.93259,0,0,1-3.76855,1.24317,22.93784,22.93784,0,0,1-4.21973.52734,54.28693,54.28693,0,0,1-2.63769,4.89942,33.33745,33.33745,0,0,1-3.65528,4.97363,20.678,20.678,0,0,1-4.55957,3.88086,10.08574,10.08574,0,0,1-5.42578,1.54492,9.29263,9.29263,0,0,1-4.06933-.86621,8.49909,8.49909,0,0,1-3.01465-2.374,10.88867,10.88867,0,0,1-1.84668-3.50489,13.63764,13.63764,0,0,1-.64063-4.18261,28.22883,28.22883,0,0,1,1.62012-9.11817,32.24116,32.24116,0,0,1,4.52246-8.7041,25.71947,25.71947,0,0,1,6.89551-6.519,15.74558,15.74558,0,0,1,8.666-2.562,7.63884,7.63884,0,0,1,3.12793.56,6.49015,6.49015,0,0,1,2.03516,1.38379,5.17528,5.17528,0,0,1,1.168,1.90577,11.948,11.948,0,0,1,.52734,2.05664Z" transform="translate(-93.11573 -179.02616)"/><path class="cls-2" d="M427.41456,329.40057a21.19262,21.19262,0,0,1-3.31642,1.28027,10.30464,10.30464,0,0,1-2.78807.45215,8.34977,8.34977,0,0,1-3.61719-.71582,6.86588,6.86588,0,0,1-2.44922-1.88379,7.358,7.358,0,0,1-1.35645-2.59961,10.28937,10.28937,0,0,1-.415-2.86426,7.98008,7.98008,0,0,1,.82911-3.80566,8.31171,8.31171,0,0,1,1.96-2.4873,7.0774,7.0774,0,0,1,2.26074-1.31836,5.97935,5.97935,0,0,1,1.6582-.377,4.13483,4.13483,0,0,1,2.29785.71582,2.40163,2.40163,0,0,1,1.09278,2.14844,2.72253,2.72253,0,0,1-.94141,2.07227,3.08545,3.08545,0,0,1-2.14844.86621,2.69976,2.69976,0,0,1-2.10937-.8291,4.5175,4.5175,0,0,0-.64063,1.46972,7.007,7.007,0,0,0-.18847,1.62012,4.70592,4.70592,0,0,0,.75293,2.60059,2.58189,2.58189,0,0,0,2.33691,1.168,4.10455,4.10455,0,0,0,1.69531-.56542,6.93985,6.93985,0,0,0,2.14746-1.88379,12.58759,12.58759,0,0,0,1.84668-3.39161,14.082,14.082,0,0,0,.791-5.01171,23.70987,23.70987,0,0,0-.71582-5.42579,37.06035,37.06035,0,0,0-2.44922-6.78222q-.45264.90381-1.01758,1.92187a18.069,18.069,0,0,1-1.168,1.84571,9.793,9.793,0,0,1-1.20605,1.39453,1.78357,1.78357,0,0,1-1.20508.56543,2.19813,2.19813,0,0,1-1.43262-.49024,1.61068,1.61068,0,0,1-.60254-1.31836,2.0993,2.0993,0,0,1,.03809-.415,2.0687,2.0687,0,0,1,.26367-.56543l-.07519.15137c.40234-.80371.76465-1.54492,1.09277-2.22363a17.92268,17.92268,0,0,1,1.0166-1.8457q.52734-.90528.94239-1.583.41309-.67822.94238-1.7334a11.64715,11.64715,0,0,1-1.20606-2.59961,9.33258,9.33258,0,0,1-.45215-2.90137,7.82416,7.82416,0,0,1,.30176-1.84668,7.08834,7.08834,0,0,1,1.0166-2.22314,6.465,6.465,0,0,1,1.99707-1.84619,6.2313,6.2313,0,0,1,3.31641-.79151,4.62935,4.62935,0,0,1,3.42871,1.05518,3.74713,3.74713,0,0,1,1.01758,2.71289,7.98024,7.98024,0,0,1-.56543,2.78857,12.208,12.208,0,0,1-1.54492,2.86377l-.0752.0752a37.32139,37.32139,0,0,1,6.40625,9.68359,21.359,21.359,0,0,1,1.88379,8.17676v.52734a.06665.06665,0,0,0,.0752.07618,1.27629,1.27629,0,0,1-.0752.376,49.33776,49.33776,0,0,0,3.35352-4.333q1.46923-2.14746,2.44922-3.88085a1.8394,1.8394,0,0,1,1.6582-1.20606,2.288,2.288,0,0,1,1.54492.64063,1.931,1.931,0,0,1,.71582,1.46972,1.8504,1.8504,0,0,1-.07519.49024,2.56915,2.56915,0,0,1-.15137.41406,63.21537,63.21537,0,0,1-3.61719,5.84082,60.26736,60.26736,0,0,1-4.59668,5.83984,45.44922,45.44922,0,0,1-5.27539,5.04981,21.24823,21.24823,0,0,1-5.72754,3.3916Z" transform="translate(-93.11573 -179.02616)"/><path class="cls-1" d="M245.32178,335.8703a39.50553,39.50553,0,0,0-3.28711,13.69531c-.27392,3.50586-.3833,6.90137-.438,10.35254a13.69667,13.69667,0,0,0,.27392,3.01269,6.52075,6.52075,0,0,0,1.53369,3.06836.70308.70308,0,0,0,1.09571.16406,10.5733,10.5733,0,0,0,1.917-1.58886,14.59723,14.59723,0,0,0,2.79394-4.60156c.87647-1.917,1.64356-3.94336,2.46485-5.86133.38379-1.04.93164-1.15039,1.8081-.60254,0,.05469.05469.165,0,.21972a57.036,57.036,0,0,1-3.77978,9.75,26.71341,26.71341,0,0,1-1.75293,2.5752,5.57313,5.57313,0,0,1-8.71,0,12.9664,12.9664,0,0,1-2.6294-6.24512,39.77441,39.77441,0,0,1-.16455-8.05273,54.68163,54.68163,0,0,1,1.26026-8.49024,20.23292,20.23292,0,0,1,1.8623-5.09472,10.645,10.645,0,0,1,2.79346-3.45117,3.37659,3.37659,0,0,1,2.082-.82129,2.59306,2.59306,0,0,1,2.41016,1.5332,30.96021,30.96021,0,0,1,2.24609,6.46387c.32861,1.918-1.15039,1.58886-1.53418.11035a44.39852,44.39852,0,0,0-2.02686-5.75195C245.48585,336.1994,245.43116,336.03436,245.32178,335.8703Z" transform="translate(-93.11573 -179.02616)"/><path class="cls-1" d="M267.50538,351.756c-.60254,2.68457-2.30078,8.05273-4.4917,8.16211a3.1045,3.1045,0,0,1-2.46485-.93067,5.12585,5.12585,0,0,1-1.36962-2.1914,13.23972,13.23972,0,0,1-.65723-5.97071c-.49316,1.25977-.65772,1.31446-1.20557,2.62891-.16406.3291-.27343.71191-.438,1.041a2.71431,2.71431,0,0,1-2.62939,1.80761,3.40908,3.40908,0,0,1-3.12256-2.02636,5.2648,5.2648,0,0,1-.32861-2.41016,11.76129,11.76129,0,0,1,1.75293-5.42383,5.53682,5.53682,0,0,1,2.02685-2.02637,3.79051,3.79051,0,0,1,3.50586-.21972,3.599,3.599,0,0,1,1.25977.98633c.21924.27441.05517.54785-.27393.54785a2.20129,2.20129,0,0,1-.82129-.16406,2.12351,2.12351,0,0,1-.60254-.32911c-1.97216,1.25977-3.999,7.34082-3.12255,9.25782.49316-.21875.65722-.71192.87646-1.15039.82178-1.75293,1.58838-3.50586,2.41016-5.31348l.93115-1.58887a1.106,1.106,0,0,1,1.15039-.54785c.32861.05469.65771,0,.98633.05469.93115.05566,1.31445.38379,1.31445,1.31543a31.66155,31.66155,0,0,1-.10937,3.94336c-.27393,2.73925-.21924,7.3955.93115,7.834,1.15039,0,2.958-4.82031,3.50586-7.77832C266.84814,350.60565,267.72462,351.09881,267.50538,351.756Z" transform="translate(-93.11573 -179.02616)"/><path class="cls-1" d="M269.4751,365.23162a7.745,7.745,0,0,0,.21924,1.09571,1.69191,1.69191,0,0,1-2.5747-.7666c-2.79346-4.71094-1.69825-26.29395.82177-28.48536a1.44581,1.44581,0,0,1,2.19141.54786c.71191,1.64355.54736,3.45117.3833,5.80664-.16455,2.1914-.43848,5.42285-.65723,7.61425a.8016.8016,0,0,0,.05469.60254l.438-.54785c2.02685-3.01269,3.28711-4.60156,4.98486-7.17578a1.586,1.586,0,0,1,2.6294,0,1.00235,1.00235,0,0,1,.05517,1.0957,28.597,28.597,0,0,1-1.58886,3.17676,47.85015,47.85015,0,0,1-5.03956,6.957,19.22907,19.22907,0,0,0-1.31494,1.64356,4.53256,4.53256,0,0,0-.3833.71191c.05469.05469.10938.10938.10938.16406.98633-.27343,1.97217-.49218,2.95849-.71191l3.12207-.98535a7.6871,7.6871,0,0,1,1.20508-.27442,1.39617,1.39617,0,0,1,1.479.71192c-.87647.65722-7.44971,2.46582-9.36719,2.57519,0,.21875-.05469.4375-.05469.71192Z" transform="translate(-93.11573 -179.02616)"/><path class="cls-1" d="M288.92042,351.31854a11.68726,11.68726,0,0,1-3.12256,5.47754,2.41192,2.41192,0,0,1-2.35547.60254,4.85745,4.85745,0,0,1-3.999-3.66993,8.3706,8.3706,0,0,1,.93115-6.84765,5.42767,5.42767,0,0,1,2.46533-2.2461,2.34839,2.34839,0,0,1,1.917-.16406,1.47173,1.47173,0,0,1,1.15039,1.69824,4.74491,4.74491,0,0,1-2.57422,3.7793,1.23012,1.23012,0,0,0-.76709,1.20508c0,1.15039-.05468,2.30078.05469,3.45117,0,1.0957.87647,2.24609,2.02686,1.58887,1.64355-.98633,2.24609-1.97168,3.397-4.60156C288.26319,350.98944,288.09913,350.98944,288.92042,351.31854Zm-5.91651-2.30078a4.86654,4.86654,0,0,0,1.80762-2.5752c.11035-.38281.21973-.7666-.16406-1.0957A6.4918,6.4918,0,0,0,283.00391,349.01776Z" transform="translate(-93.11573 -179.02616)"/><path class="cls-1" d="M306.39307,353.45428c-.49316-.54785-.93164-1.041-1.37011-1.47852-.82129-.76757-1.75293-1.53417-2.57422-2.35546-.82129-.877-1.69824-1.75293-2.46485-2.73926a7.02088,7.02088,0,0,1,1.75293-10.18848c2.13575-1.47949,4.71094-.877,5.916,1.80762a6.72073,6.72073,0,0,1-.0547,3.88867c-.10936.27441-.2744.43848-.54784.38379-.3291-.05469-.65723-.16406-.71191-.60254,0-.21875.05468-.38379.05468-.65723a16.58935,16.58935,0,0,0-.10937-2.35546,2.27688,2.27688,0,0,0-.877-1.42481,3.63011,3.63011,0,0,0-.32911.60254,12.63637,12.63637,0,0,0-1.75293,5.80664,5.9319,5.9319,0,0,0,.82227,3.23242c.65723.93067,1.36914,1.917,2.08105,2.84864.65821.82128,1.37011,1.47851,2.13672,2.35546a7.34851,7.34851,0,0,1,1.15039-.54785c.82129-.27441,1.64356-.60254,2.51953-.82226a1.64023,1.64023,0,0,1,1.918.71289c-1.4795.71191-2.958,1.42383-4.49218,2.08105l.38379.877a7.89056,7.89056,0,0,1,.4375,6.57324,11.64055,11.64055,0,0,1-5.916,7.0664,4.42243,4.42243,0,0,1-4.05371.21875,2.7742,2.7742,0,0,1-1.97168-3.28613,11.70372,11.70372,0,0,1,2.02637-6.13574,19.27238,19.27238,0,0,1,5.69726-5.6416C306.11866,353.674,306.17335,353.61932,306.39307,353.45428Zm-5.42382,13.64063a1.96617,1.96617,0,0,1,.38378-.165,12.91566,12.91566,0,0,0,6.08106-9.47657,4.20564,4.20564,0,0,0-.27442-2.13671,1.5875,1.5875,0,0,0-.60253.3291,16.12,16.12,0,0,0-4.76563,5.53222,10.14074,10.14074,0,0,0-.98633,3.39649A5.63841,5.63841,0,0,0,300.96925,367.09491Z" transform="translate(-93.11573 -179.02616)"/><path class="cls-1" d="M330.87745,351.26385a2.40665,2.40665,0,0,0-.10938.54688,28.80539,28.80539,0,0,1-2.35547,8.16211c-.71289,1.75292-1.53418,2.13671-3.39648,1.75292a4.16707,4.16707,0,0,1-3.23242-2.68359,6.32418,6.32418,0,0,1-.4375-3.01269c.10937-1.69825.38281-6.08106.54687-7.7793a16.44343,16.44343,0,0,0,.11035-2.35547c0-1.917-1.64355-.71191-2.41015.54785a19.78489,19.78489,0,0,0-1.42481,2.84863,21.92264,21.92264,0,0,0-1.64355,8.16211,7.35507,7.35507,0,0,1-.05469,1.09571,1.07509,1.07509,0,0,1-.876,1.0957,1.42964,1.42964,0,0,1-1.64356-.49316,9.051,9.051,0,0,1-.71191-1.4795,18.12151,18.12151,0,0,1-.877-5.42285,73.42575,73.42575,0,0,1,.3291-10.4082,22.16024,22.16024,0,0,1,1.09571-5.09375c.54785-1.041.7666-1.42481,1.8623-1.0957a1.56213,1.56213,0,0,1,1.31446,1.64355c0,1.36914-.10938,1.20508-.98633,9.915-.16406,1.58789-.32813,3.17676-.4375,4.76562.05469.05469.32812-.27441.38281-.65722.93164-3.23242,2.19141-5.75195,3.88965-6.90235a3.48612,3.48612,0,0,1,4.875,1.47852,7.38186,7.38186,0,0,1,.60254,2.84863c-.10938,1.86231-.16406,6.3545-.27344,8.2168-.10937,1.69824.21875,3.61523.93066,3.72559.49317.10937.71289-.38379.877-.71289a37.91579,37.91579,0,0,0,2.73926-8.32618C329.67237,350.88006,330.05518,350.88006,330.87745,351.26385Z" transform="translate(-93.11573 -179.02616)"/><path class="cls-1" d="M346.104,346.6076c-1.75293,2.24512-3.999,2.57422-6.62793,1.80762-.11035,1.0957-.165,2.13574-.3291,3.17676a31.66125,31.66125,0,0,1-.65723,3.12207,5.181,5.181,0,0,1-.54785,1.26074,4.36039,4.36039,0,0,1-7.66894.60254,5.3095,5.3095,0,0,1-1.041-3.06836,10.8141,10.8141,0,0,1,2.13672-6.68262,2.03586,2.03586,0,0,1,.65723-.71191,2.57716,2.57716,0,0,1,2.84863-.27442c.27344.10938.54785.27442.32812.60254a14.881,14.881,0,0,0-1.31445,4.27344,25.54693,25.54693,0,0,0-.65723,3.56055,6.95391,6.95391,0,0,0,.27344,2.35546c.21973.876.71289.98536,1.42481.49317a4.03953,4.03953,0,0,0,1.64355-1.80859,14.61627,14.61627,0,0,0,1.47852-6.95606,1.53921,1.53921,0,0,0-.54786-1.15039,7.50521,7.50521,0,0,1-.98535-1.31543c-.3291-.60254-.05566-.93066.60254-.93066a1.617,1.617,0,0,1,1.20508.60254,5.49124,5.49124,0,0,1,.65723,1.041,1.65658,1.65658,0,0,0,.93066.98535,3.65783,3.65783,0,0,0,3.72559-.43847c.32812-.21875.60254-.49219.98535-.76661C345.11768,346.05975,345.50147,346.11444,346.104,346.6076Z" transform="translate(-93.11573 -179.02616)"/><path class="cls-1" d="M364.78175,348.46991c-1.25977.49316-3.88965,1.041-5.09473,1.69824a1.747,1.747,0,0,0-.98633,1.31445,14.62814,14.62814,0,0,1-3.94336,7.06641,19.59893,19.59893,0,0,1-1.47949,1.53418,3.858,3.858,0,0,1-5.09473.4375l-.4375-.21875a30.31947,30.31947,0,0,0-.11035,3.12207c.05566,1.0957.27441,2.13672.3291,3.23242.05469,1.041.05469,2.08105.05469,3.12207,0,.38379-.21875.49316-.54785.60254a1.81259,1.81259,0,0,1-2.51953-1.25977c-1.75293-7.77832-1.20508-18.46093.93066-26.40332a1.23717,1.23717,0,0,1,1.26074-.7666c1.20507-.11035,1.75293.38281,1.64258,1.58789a24.0285,24.0285,0,0,1-.21875,2.79395,3.86122,3.86122,0,0,0,.05469,1.0957c.05469-.16406.21875-.27441.27441-.43848a10.5422,10.5422,0,0,1,3.56055-3.56054,2.98613,2.98613,0,0,1,2.793-.32813,5.292,5.292,0,0,1,3.72558,4.76563c.05469.21875.05469.49316.10938.876a23.45994,23.45994,0,0,1,5.04-1.25976C364.78175,347.48358,365.10987,347.86737,364.78175,348.46991Zm-8.71-3.06836a1.46011,1.46011,0,0,0-2.46484-1.14942,8.83858,8.83858,0,0,0-3.56055,4.05274,32.84116,32.84116,0,0,0-2.082,7.45019v.49317a22.00194,22.00194,0,0,1,5.31348-4.1084c2.02734-1.20508,2.02734-1.20508,2.51953-3.56055A7.76249,7.76249,0,0,0,356.07178,345.40155Zm-2.46484,8.71a11.7488,11.7488,0,0,0-3.45117,2.90332,6.00941,6.00941,0,0,0-.76758,1.80761c-.05469.165.05566.38379.11035.7129A17.78168,17.78168,0,0,0,353.60694,354.11151Z" transform="translate(-93.11573 -179.02616)"/><path class="cls-2" d="M181.71673,275.38069a7.95841,7.95841,0,0,1-.256,4.98863,16.38928,16.38928,0,0,1-2.30164,4.3911,19.39769,19.39769,0,0,1-7.2484,5.71318,1.68817,1.68817,0,0,1-1.06566,0,1.29,1.29,0,0,1-.725-.76737,1.09112,1.09112,0,0,1-.04282-.9805,1.50285,1.50285,0,0,1,.725-.725,12.39217,12.39217,0,0,0,2.942-2.089,9.17294,9.17294,0,0,0,2.17414-3.1123,5.34607,5.34607,0,0,1-3.66607-1.74788,5.40424,5.40424,0,0,1-1.45006-3.79451,5.48157,5.48157,0,0,1,1.62038-3.96531,5.37052,5.37052,0,0,1,4.00765-1.66272Q180.09541,271.629,181.71673,275.38069Z" transform="translate(-93.11573 -179.02616)"/><path class="cls-2" d="M339.76732,226.06056A30.481,30.481,0,0,0,329.988,218.934c-1.95942-.94458-1.95118-.96173-1.52185-3.04962,1.39556-6.78669-1.62268-12.53656-7.78766-14.70667a18.004,18.004,0,0,0-3.77918-.86621c-1.02069-.12408-.95475-.56277-.98008-1.6611-.09949-4.31122-1.72849-9.01156-5.0637-11.828-3.596-3.03675-10.47133-7.81333-15.92546-7.79622-.87439.00274-1.19171.2356-.81793.93732a12.96308,12.96308,0,0,0,1.72608,2.41339c1.32385,1.50677,1.00348,3.03644-.88764,3.69354a6.325,6.325,0,0,1-1.96313.3382c-2.09217.02673-4.18518-.02-6.2779-.035-5.27465-.0379-10.28637.99408-14.56244,4.22553a10.7848,10.7848,0,0,0-3.5782,11.45252c.07446.2763-1.03185.62352-1.54777,5.21656-.09534-.04737-2.29267-1.3304-2.68476-1.54176a12.212,12.212,0,0,0-7.14978-1.45038c-2.42511.23962-5.00115,2.90894-5.71612,5.2298-2.48407,8.06366.56366,12.60193.56366,12.60193s-7.09575-.47633-9.20408,6.33238c-2.47034,7.9776-.50032,15.54835,4.586,21.85987a16.66615,16.66615,0,0,0,7.18472,6c7.83068,3.48066,15.97409,1.82911,23.64578-1.00945,7.86157-2.90888,15.45014-6.65918,23.45178-9.06317,12.621-3.79187,25.41382-6.0636,37.67072.75341-.014.02088-.02588.04261-.04.06348.50464.26715,2.24756,1.18988,2.40094,1.27112C346.322,241.04872,345.68371,232.72975,339.76732,226.06056ZM256.01641,211.9709c-.56578-3.06677,2.13336-4.23486,4.97265-2.99975a54.55022,54.55022,0,0,1,5.23444,2.95013c.71082.40827,1.4165.82544,2.28967,1.3349.69586-1.91388,1.36115-3.62024,1.93762-5.35608a7.24258,7.24258,0,0,1,6.55506-5.207,4.15408,4.15408,0,0,1,2.56927.65766c3.48981,2.35345,4.37946,5.13867,3.20893,9.788a28.53568,28.53568,0,0,1-1.31378,3.7879c-.74305,1.81891-1.68262,3.56415-2.33033,5.4137-.64355,1.83783-.77681,2.78873-1.2961,4.75382C277.70163,227.09411,257.85284,221.92523,256.01641,211.9709Zm-2.34845-.2102c-.71167,9.68793,12.2102,14.33124,17.41369,16.33063,2.1941.53576,3.05561,1.13659,5.27729,1.54815,2.7749.5141,2.67541.43744,3.804-2.09192a58.81207,58.81207,0,0,1,3.21668-5.95306c1.96338-3.31189,4.11413-6.52167,4.91284-10.385.98389-4.759-.42706-8.72546-4.01343-11.19354-3.8388-2.64185-10.70978-3.05689-13.59259.376a7.61109,7.61109,0,0,1,2.84809-7.34143,15.91214,15.91214,0,0,1,9.23-3.56543c3.61651-.34722,7.26587-.34094,10.89734-.55072a19.53716,19.53716,0,0,0,3.59033-.52386c2.76391-.69019,3.3533-2.63461,3.18423-4.69288a6.4527,6.4527,0,0,0-.48219-1.54811c3.38216.6879,8.42175,5.00807,10.65911,7.86605a14.04979,14.04979,0,0,1,2.77264,9.91589c-.71943,10.2378-8.7284,13.14142-9.45264,14.03827a6.809,6.809,0,0,0,4.87158-.63513c3.24164-1.64807,5.11011-4.49048,6.49317-7.70788.41125-.95661.61425-2.00281,1.02551-2.95942a1.1848,1.1848,0,0,1,.95074-.59454c9.69263,1.96564,11.7782,10.51111,8.4394,16.44275-3.07282,5.45911-7.697,9.05725-13.26935,11.62225-7.16083,3.29627-14.76361,4.19294-22.5315,4.09778-7.88733-.09668-13.84424-.56048-21.2832-3.2337-5.48779-1.972-9.36932-3.98255-13.29938-8.19745C251.46062,218.67415,253.429,212.12966,253.668,211.7607Zm74.01361,27.785c-12.44183-2.78284-24.41052-.53808-36.03833,4.1178-4.774,1.91156-9.47064,4.05151-14.22644,6.00708-1.03711.39954-2.08368.827-3.1435,1.25568-1.87243.72509-3.75787,1.41-5.66583,2.026a21.51944,21.51944,0,0,1-11.09131.80438c-5.9727-2.224-7.6185-4.19876-10.27206-8.50107-3.53278-5.72772-2.83414-13.34518-1.11435-16.73715,1.32233-2.60816,5.16876-5.90418,8.08789-3.86029,9.45349,9.11535,17.34528,10.83276,29.46942,12.13446a80.915,80.915,0,0,0,19.49762-.74011c7.61951-1.16693,12.52783-3.73127,19.82721-10.0752,1.70587-1.4826,2.8811-3.10754,4.53565-4.64606a1.72992,1.72992,0,0,1,1.48291-.38238,22.50341,22.50341,0,0,1,11.20819,10.02c2.55847,4.84271,2.79527,9.52875.73157,14.17206A38.37478,38.37478,0,0,0,327.68157,239.54567Z" transform="translate(-93.11573 -179.02616)"/><path class="cls-2" d="M266.25787,283.3503c6.89987,4.4293,13.21552,1.84482,19.4102-1.28413,7.59671-3.8371,15.4136-6.53318,24.1032-5.99429,5.43255.33687,10.61425,2.68495,13.11078,6.31113a75.15408,75.15408,0,0,0-9.05595-1.80122c-9.225-.72048-17.34564,3.2549-25.74536,6.22474a46.53135,46.53135,0,0,1-12.80692,2.41038C271.32189,289.43548,268.24686,287.08584,266.25787,283.3503Z" transform="translate(-93.11573 -179.02616)"/><path class="cls-2" d="M315.72289,270.819c.366-8.29589,3.90189-15.40833,8.801-21.99415Q320.12342,259.8219,315.72289,270.819Z" transform="translate(-93.11573 -179.02616)"/><path class="cls-2" d="M325.53362,275.55137c.24947-7.53881,3.92556-13.33841,9.00808-18.49748C331.57472,263.14642,328.60771,269.23894,325.53362,275.55137Z" transform="translate(-93.11573 -179.02616)"/><path class="cls-2" d="M278.00508,273.327l-12.09-10.98368C269.9157,262.30085,275.74437,267.39628,278.00508,273.327Z" transform="translate(-93.11573 -179.02616)"/><path class="cls-2" d="M286.37672,257.06489a17.34066,17.34066,0,0,1,5.98019,14.5641C290.20066,266.37769,288.28869,261.72129,286.37672,257.06489Z" transform="translate(-93.11573 -179.02616)"/><path class="cls-1" d="M268.43419,212.11461c.74489-1.97817,1.10364-4.19862,1.72074-5.99283,1.13027-3.28625,3.76-5.51049,7.22293-5.38853,6.51084.22929,7.586,6.45438,6.333,11.26a28.8102,28.8102,0,0,1-1.4064,3.91515c-.79541,1.88009-1.80121,3.684-2.49453,5.59565-.68891,1.89958-1.10229,3.89232-1.65819,5.92345a3.18343,3.18343,0,0,1-.74888-.00754,40.5054,40.5054,0,0,1-19.43-10.26317,9.57706,9.57706,0,0,1-2.23143-2.88712,7.1,7.1,0,0,1-.68478-3.48346c.29936-3.21037,2.39352-4.65881,5.43292-3.38216a27.62622,27.62622,0,0,1,5.42675,2.90446C266.67727,210.7304,267.49946,211.588,268.43419,212.11461Z" transform="translate(-93.11573 -179.02616)"/><path class="cls-2" d="M303.49936,269.91194c-2.19521-6.0401-1.54085-11.61362.26012-17.0537C303.67381,258.47523,303.58813,264.09221,303.49936,269.91194Z" transform="translate(-93.11573 -179.02616)"/></svg>